<svg width="50" height="44" viewBox="0 0 50 44" fill="none" xmlns="http://www.w3.org/2000/svg">
<rect width="50" height="44" rx="8" fill="white"/>
<path d="M33.9248 9.78778L30.7248 8.15243C27.9152 6.718 26.5104 6 25 6C23.4896 6 22.0848 6.71644 19.2752 8.15243L18.7616 8.41565L33.0384 16.3572L39.464 13.2267C38.4304 12.0866 36.7632 11.2347 33.9248 9.78467M40.5968 15.2888L34.2 18.4037V23.1322C34.2 23.442 34.0736 23.7391 33.8485 23.9582C33.6235 24.1773 33.3183 24.3003 33 24.3003C32.6817 24.3003 32.3765 24.1773 32.1515 23.9582C31.9264 23.7391 31.8 23.442 31.8 23.1322V19.5718L26.2 22.2974V37C27.3488 36.7212 28.656 36.0546 30.7248 34.9971L33.9248 33.3617C37.3664 31.6033 39.088 30.7249 40.0448 29.1441C41 27.5648 41 25.5977 41 21.6682V21.486C41 18.5377 41 16.6936 40.5968 15.2888ZM23.8 37V22.2974L9.4032 15.2888C9 16.6936 9 18.5377 9 21.4829V21.6651C9 25.5977 9 27.5648 9.9552 29.1441C10.912 30.7249 12.6336 31.6049 16.0752 33.3633L19.2752 34.9971C21.344 36.0546 22.6512 36.7212 23.8 37ZM10.536 13.2282L25 20.268L30.4576 17.6125L16.24 9.70368L16.0752 9.78778C13.2384 11.2362 11.5696 12.0882 10.536 13.2298" fill="#FFAB00"/>
</svg>
