<?xml version="1.0" encoding="utf-8"?>
<!-- Generator: Adobe Illustrator 27.5.0, SVG Export Plug-In . SVG Version: 6.00 Build 0)  -->
<svg version="1.1" id="Layer_1" xmlns="http://www.w3.org/2000/svg" xmlns:xlink="http://www.w3.org/1999/xlink" x="0px" y="0px"
	 viewBox="0 0 657.8 124.5" style="enable-background:new 0 0 657.8 124.5;" xml:space="preserve">
<style type="text/css">
	.st0{fill:#0066FF;}
	.st1{fill:url(#SVGID_1_);}
	.st2{fill:url(#SVGID_00000048493651501901839010000010713089086462063801_);}
	.st3{fill:url(#SVGID_00000097491057545765700280000000098849181896301724_);}
</style>
<path class="st0" d="M183.1,95.3c-2.2,14.1-14.4,24.8-29.1,24.8c-14.7,0-26.9-10.8-29.1-24.8H139c2,6.4,8,11,15,11c7,0,13-4.6,15-11
	H183.1L183.1,95.3z"/>
<path class="st0" d="M183.1,50.5v39.7h-13.8v-4.2c-0.1,0-0.1,0.1-0.2,0.1c-4.4,2.7-9.6,4.2-15.1,4.2s-10.7-1.5-15.1-4.2
	c-4.3-2.6-7.9-6.2-10.4-10.6c-2.5-4.3-4-9.4-4-14.7s1.6-10.9,4.3-15.3c0.1-0.2,0.3-0.5,0.4-0.7c5.4-8.3,14.7-13.1,24.5-13.1h11.1
	v13.8h-12.3c-2,0-4,0.4-5.8,1.4c-5.1,2.6-8.6,7.9-8.6,14c0,1.4,0.2,2.8,0.6,4.2c1.3,4.9,5,8.8,9.7,10.6c1.7,0.6,3.5,1,5.4,1
	s3.7-0.3,5.4-1c2.2-0.8,4.1-2.1,5.7-3.7c2.6-2.6,4-6.2,4-9.9l0.1-11.5L183.1,50.5L183.1,50.5z"/>
<rect x="169.3" y="31.7" class="st0" width="13.8" height="13.8"/>
<path class="st0" d="M613.4,50.5v39.7h-13.8v-4.2c-0.1,0-0.1,0.1-0.2,0.1c-4.4,2.7-9.6,4.2-15.1,4.2c-5.5,0-10.7-1.5-15.1-4.2
	c-4.3-2.6-7.9-6.2-10.4-10.6c-2.5-4.3-4-9.4-4-14.7s1.6-10.9,4.3-15.3c0.1-0.2,0.3-0.5,0.4-0.7c5.4-8.3,14.7-13.1,24.5-13.1h11.1
	v13.8h-12.3c-2,0-4,0.4-5.8,1.4c-5.1,2.6-8.6,7.9-8.6,14c0,1.4,0.2,2.8,0.6,4.2c1.3,4.9,5,8.8,9.7,10.6c1.7,0.6,3.5,1,5.4,1
	c1.9,0,3.7-0.3,5.4-1c2.2-0.8,4.1-2.1,5.7-3.7c2.6-2.6,4-6.2,4-9.9l0.1-11.5L613.4,50.5L613.4,50.5z"/>
<rect x="599.6" y="31.7" class="st0" width="13.8" height="13.8"/>
<path class="st0" d="M217.2,90.3c-7.4,0-13.7-2.7-18.9-7.9s-7.8-11.6-7.8-18.9v-3c0-7.3,2.6-13.6,7.8-18.9
	c5.2-5.2,11.5-7.9,18.8-7.9s13.7,2.7,18.8,7.9s7.8,11.6,7.8,18.9v3c0,1.1-0.1,2.3-0.3,3.5h-40.1l0.5,1.5c1,2.7,2.7,5,5.1,6.6
	c2.4,1.7,5.1,2.5,8.1,2.5c3.3,0,6.3-1.1,8.9-3.2l12.7,4.6c-2.3,3.2-5.3,5.9-8.8,7.8C226,89.2,221.7,90.3,217.2,90.3L217.2,90.3z
	 M217.1,46.5c-2.9,0-5.7,0.8-8.1,2.5c-2.4,1.7-4.1,3.9-5.1,6.6l-0.5,1.5h27.5l-0.5-1.5c-1-2.7-2.7-5-5.1-6.6
	C222.7,47.3,220,46.5,217.1,46.5L217.1,46.5z"/>
<path class="st0" d="M279,90.3c-7.3,0-13.7-2.7-18.8-7.9c-5.2-5.2-7.8-11.6-7.8-18.9v-3c0-7.3,2.6-13.6,7.8-18.9
	c5.2-5.2,11.5-7.9,18.8-7.9s13.7,2.7,18.8,7.9c5.2,5.2,7.8,11.6,7.8,18.9v3c0,7.3-2.6,13.6-7.8,18.9C292.6,87.7,286.3,90.3,279,90.3
	z M279,46.4c-3.9,0-7.2,1.4-10,4.2c-2.8,2.8-4.2,6.2-4.2,10.1v3c0,3.9,1.4,7.3,4.2,10c2.8,2.7,6.1,4.1,10,4.1s7.2-1.4,10-4.1
	c2.8-2.7,4.2-6.1,4.2-10v-3c0-3.9-1.4-7.3-4.2-10.1C286.2,47.8,282.8,46.4,279,46.4L279,46.4z"/>
<path class="st0" d="M316.8,89V36.2c0-7.4,2.6-13.7,7.8-18.9c4.9-4.9,10.9-7.5,17.8-7.8V22c-3.4,0.3-6.4,1.6-8.9,4.1
	c-2.8,2.8-4.2,6.2-4.2,10.1v5.6h13.2v10.1h-13.2V89L316.8,89L316.8,89z"/>
<rect x="352" y="9.4" class="st0" width="12.5" height="79.5"/>
<path class="st0" d="M402.4,90.3c-7.4,0-13.7-2.7-18.9-7.9s-7.8-11.6-7.8-18.9v-3c0-7.3,2.6-13.6,7.8-18.9
	c5.2-5.2,11.5-7.9,18.8-7.9s13.7,2.7,18.8,7.9s7.8,11.6,7.8,18.9v3c0,1.1-0.1,2.3-0.3,3.5h-40.1l0.5,1.5c1,2.7,2.7,5,5.1,6.6
	c2.4,1.7,5.1,2.5,8.1,2.5c3.3,0,6.3-1.1,8.9-3.2l12.7,4.6c-2.3,3.2-5.3,5.9-8.8,7.8C411.2,89.2,406.9,90.3,402.4,90.3L402.4,90.3z
	 M402.3,46.5c-2.9,0-5.7,0.8-8.1,2.5c-2.4,1.7-4.1,3.9-5.1,6.6l-0.5,1.5H416l-0.5-1.5c-1-2.7-2.7-5-5.1-6.6
	C408,47.3,405.3,46.5,402.3,46.5L402.3,46.5z"/>
<path class="st0" d="M464.2,90.3c-7.4,0-13.7-2.7-18.9-7.9s-7.8-11.6-7.8-18.9v-3c0-7.3,2.6-13.6,7.8-18.9
	c5.2-5.2,11.5-7.9,18.8-7.9s13.7,2.7,18.8,7.9c5.2,5.2,7.8,11.6,7.8,18.9v3c0,1.1-0.1,2.3-0.3,3.5h-40.1l0.5,1.5
	c1,2.7,2.7,5,5.1,6.6c2.4,1.7,5.1,2.5,8.1,2.5c3.3,0,6.3-1.1,8.9-3.2l12.7,4.6c-2.3,3.2-5.3,5.9-8.8,7.8
	C473.1,89.2,468.8,90.3,464.2,90.3L464.2,90.3z M464.2,46.5c-2.9,0-5.7,0.8-8.1,2.5c-2.4,1.7-4.1,3.9-5.1,6.6l-0.5,1.5h27.5
	l-0.5-1.5c-1-2.7-2.7-5-5.1-6.6C469.8,47.3,467.1,46.5,464.2,46.5z"/>
<path class="st0" d="M527.1,89c-7.4,0-13.7-2.6-18.9-7.8c-5.2-5.2-7.8-11.5-7.8-18.9v-48h12.5v21h16.7v12.6h-16.7v14.4
	c0,3.9,1.4,7.3,4.2,10.1c2.8,2.8,6.2,4.2,10.1,4.2h5.3V89L527.1,89L527.1,89z"/>
<path class="st0" d="M547.5,89c-2,0-3.7-0.7-5.1-2.1s-2.1-3.1-2.1-5.1s0.7-3.7,2.1-5.1s3.1-2.1,5.1-2.1c2,0,3.7,0.7,5.1,2.1
	s2.1,3.1,2.1,5.1s-0.7,3.7-2.1,5.1S549.6,89,547.5,89z"/>
<rect x="621.5" y="35.3" class="st0" width="12.6" height="53.7"/>
<g>
	
		<linearGradient id="SVGID_1_" gradientUnits="userSpaceOnUse" x1="16.4427" y1="41.5673" x2="95.3776" y2="41.5673" gradientTransform="matrix(1 0 0 -1 0 126)">
		<stop  offset="0" style="stop-color:#2ED5FF"/>
		<stop  offset="0.8" style="stop-color:#0062FF"/>
	</linearGradient>
	<path class="st1" d="M93.5,85.9c-0.5,1-1,2-1.7,2.9c0,0,0,0,0,0l-3,3.6l-23.2,27.6L32,84.8h0v0l-5.3-5.6
		c-6.2-7.7-10-17.3-10.3-27.9c2.1,5.8,6.1,12.4,13.7,13.4c1.8,0.2,3.7,0.1,5.5-0.3l0,0c1.5-0.4,3-1,4.4-1.8l24-13.9l28.3,18.1
		C93.1,68.2,98,76.5,93.5,85.9L93.5,85.9z"/>
	
		<linearGradient id="SVGID_00000084520721488210946860000003833502677138225074_" gradientUnits="userSpaceOnUse" x1="82.0405" y1="106.4412" x2="101.5535" y2="60.3889" gradientTransform="matrix(1 0 0 -1 0 126)">
		<stop  offset="0" style="stop-color:#0062FF"/>
		<stop  offset="1" style="stop-color:#2ED5FF"/>
	</linearGradient>
	<path style="fill:url(#SVGID_00000084520721488210946860000003833502677138225074_);" d="M110.4,49.8c0,8.9-2.5,17.2-6.8,24.3
		c-0.3,0.5-0.9,1.4-1.3,2c-0.3,0.4-0.5,0.7-0.8,1.1l-5,5.9l0,0l-4.9,5.8c0.7-1,1.3-2,1.7-2.9c4.5-9.4-0.3-17.8-1.2-19.2
		c-0.1-0.1-0.1-0.2-0.1-0.2L64.3,14.7l0.7-1.2c0,0,5.7-8.6,17.2-6.8C98.8,13.9,110.4,30.5,110.4,49.8z"/>
	
		<linearGradient id="SVGID_00000052091605677089023830000016658832097668038811_" gradientUnits="userSpaceOnUse" x1="28.1949" y1="74.2219" x2="60.9869" y2="122.1038" gradientTransform="matrix(1 0 0 -1 0 126)">
		<stop  offset="0.2" style="stop-color:#009AFF"/>
		<stop  offset="1" style="stop-color:#2E69FF"/>
	</linearGradient>
	<path style="fill:url(#SVGID_00000052091605677089023830000016658832097668038811_);" d="M82.2,6.7C70.7,4.9,65,13.5,65,13.5
		l-0.7,1.2L35.6,64.5l0,0c-1.8,0.4-3.6,0.5-5.5,0.3c-7.5-1-11.6-7.6-13.7-13.4c0-0.5,0-1,0-1.6c0-26,21.1-47,47-47
		C70.1,2.8,76.5,4.2,82.2,6.7z"/>
</g>
<g>
	<path class="st0" d="M633.6,25.2c-0.1,0.2-0.2,0.4-0.3,0.6l0,0l-0.6,0.7l-4.4,5.2l-6.3-6.7l0,0l0,0l-1-1c-1.2-1.5-1.9-3.3-2-5.3
		c0.4,1.1,1.2,2.3,2.6,2.5c0.3,0,0.7,0,1-0.1l0,0c0.3-0.1,0.6-0.2,0.8-0.3l4.5-2.6l5.3,3.4C633.6,21.9,634.5,23.5,633.6,25.2
		L633.6,25.2z"/>
	<path class="st0" d="M636.8,18.4c0,1.7-0.5,3.3-1.3,4.6c-0.1,0.1-0.2,0.3-0.2,0.4c0,0.1-0.1,0.1-0.2,0.2l-0.9,1.1l0,0l-0.9,1.1
		c0.1-0.2,0.2-0.4,0.3-0.6c0.9-1.8-0.1-3.4-0.2-3.6c0,0,0,0,0,0l-5.2-9.8l0.1-0.2c0,0,1.1-1.6,3.3-1.3
		C634.6,11.7,636.8,14.8,636.8,18.4L636.8,18.4z"/>
	<path class="st0" d="M631.5,10.3c-2.2-0.3-3.3,1.3-3.3,1.3l-0.1,0.2l-5.4,9.4l0,0c-0.3,0.1-0.7,0.1-1,0.1c-1.4-0.2-2.2-1.4-2.6-2.5
		c0-0.1,0-0.2,0-0.3c0-4.9,4-8.9,8.9-8.9C629.2,9.6,630.4,9.8,631.5,10.3L631.5,10.3z"/>
</g>
</svg>
